<?xml version="1.0" encoding="UTF-8"?>
<!DOCTYPE svg PUBLIC "-//W3C//DTD SVG 1.1//EN" "http://www.w3.org/Graphics/SVG/1.1/DTD/svg11.dtd">
<svg xmlns="http://www.w3.org/2000/svg" version="1.1" width="75px" height="73px" style="shape-rendering:geometricPrecision; text-rendering:geometricPrecision; image-rendering:optimizeQuality; fill-rule:evenodd; clip-rule:evenodd" xmlns:xlink="http://www.w3.org/1999/xlink">
<g><path style="opacity:1" fill="#64e2e7" d="M 27.5,-0.5 C 30.5,-0.5 33.5,-0.5 36.5,-0.5C 36.8293,5.53675 36.4959,11.5368 35.5,17.5C 24.9831,19.0147 19.3165,25.0147 18.5,35.5C 12.1667,35.5 5.83333,35.5 -0.5,35.5C -0.5,33.1667 -0.5,30.8333 -0.5,28.5C 3.40114,13.5987 12.7345,3.93204 27.5,-0.5 Z"/></g>
<g><path style="opacity:1" fill="#f8fdfd" d="M 33.5,24.5 C 35.8056,24.9926 38.139,25.3259 40.5,25.5C 43.9078,26.5778 45.9078,28.9111 46.5,32.5C 46.5,33.5 46.5,34.5 46.5,35.5C 38.7572,36.1299 31.4238,35.4633 24.5,33.5C 24.2627,32.209 24.596,31.209 25.5,30.5C 26.9063,30.0269 27.573,29.0269 27.5,27.5C 28.911,25.461 30.911,24.461 33.5,24.5 Z"/></g>
<g><path style="opacity:0.98" fill="#bcf2f3" d="M 33.5,24.5 C 35.9533,23.3549 38.2866,23.6883 40.5,25.5C 38.139,25.3259 35.8056,24.9926 33.5,24.5 Z"/></g>
<g><path style="opacity:0.851" fill="#aeeff1" d="M 27.5,27.5 C 27.573,29.0269 26.9063,30.0269 25.5,30.5C 25.427,28.9731 26.0937,27.9731 27.5,27.5 Z"/></g>
<g><path style="opacity:0.952" fill="#fefefe" d="M -0.5,35.5 C 5.83333,35.5 12.1667,35.5 18.5,35.5C 19.431,46.4311 25.431,52.4311 36.5,53.5C 45.8333,51.5 51.5,45.8333 53.5,36.5C 59.8072,35.3361 66.1405,35.1694 72.5,36C 69.418,58.2503 56.7514,70.4169 34.5,72.5C 34.1667,72.5 33.8333,72.5 33.5,72.5C 16.0383,70.0396 4.70498,60.3729 -0.5,43.5C -0.5,40.8333 -0.5,38.1667 -0.5,35.5 Z"/></g>
<g><path style="opacity:0.971" fill="#5ee0e5" d="M 46.5,32.5 C 48.06,40.9822 44.3933,45.9822 35.5,47.5C 27.1125,46.1503 23.4458,41.4836 24.5,33.5C 31.4238,35.4633 38.7572,36.1299 46.5,35.5C 46.5,34.5 46.5,33.5 46.5,32.5 Z"/></g>
</svg>
